<svg id="Layer_1" data-name="Layer 1" xmlns="http://www.w3.org/2000/svg" viewBox="0 0 2625.36 1974"><defs><style>.cls-lumen-1,.cls-lumen-2,.cls-lumen-3{fill:none;}.cls-lumen-1,.cls-lumen-2{stroke:#000;}.cls-lumen-1{stroke-width:140px;}.cls-lumen-2{stroke-width:140.13px;}</style></defs><title>eyeview</title><path d="M1451,946h86a24.05,24.05,0,0,0,3.8.74c8.32.36,16.64.6,25,1a1388.4,1388.4,0,0,1,176.71,19.09c106.88,18.55,209.79,49.79,308,96s187.69,105.53,267.4,179.42c50,46.37,95.35,96.91,134.22,153,21.17,30.54,42.9,60.93,54.89,96.76v17c-2,5.59-3.39,11.46-6,16.7-5.26,10.38-11,20.56-16.89,30.58C2409,1683.22,2310.72,1789.14,2191.82,1876c-123.05,89.86-259.26,151.18-407.65,185.56a1209.29,1209.29,0,0,1-214.42,29.67c-9.59.46-19.17,1.19-28.75,1.8h-80c-4.61-.33-9.21-.79-13.82-1a1282.26,1282.26,0,0,1-179.09-19.82c-91.65-16.91-180-44.19-264.86-82.79A1089.29,1089.29,0,0,1,731,1812.75c-73-64.62-137.18-136.94-190.35-218.75-17.55-27-35.74-53.81-45.62-85v-16c1.85-5.64,2.93-11.69,5.7-16.84C512.11,1454.92,523,1433.32,536,1413c48.22-75.75,107.72-141.78,175.62-200.35C784.2,1150,864.34,1099,951.18,1058.51c77.71-36.28,158.67-63,242.41-81.31a1356.32,1356.32,0,0,1,247.59-30.28C1444.46,946.81,1447.73,946.31,1451,946Zm-363.64,195.7c-1.86.64-3.87,1.26-5.83,2-113,42.55-214.48,103.62-302.21,186.93-51.26,48.68-95.81,102.77-131.72,163.82-2.35,4-2.38,6.73.06,10.65a975.91,975.91,0,0,0,238,261.92q138.87,106,306.3,156.09c113.16,33.62,228.87,46,346.62,42.22a1103.22,1103.22,0,0,0,195.67-23.41,952.72,952.72,0,0,0,196-64.41c93.43-42.53,177.53-99.09,252.84-168.78A984.54,984.54,0,0,0,2350,1507.26c2.78-4.44,2.7-7.53,0-11.92-43.86-71.17-98.95-132.58-162.34-186.68-82.95-70.8-176.2-124.12-278.14-162.48-6.65-2.51-13.37-4.81-20.74-7.46,7.49,10.85,14.79,20.75,21.4,31.1,57.54,90.06,78.29,187.84,59.49,293.21-13.48,75.54-46.88,142-97.58,199.33-86.15,97.43-195.61,150.2-323.84,165.33a511,511,0,0,1-154.23-5.54c-100.06-18.67-188-61.58-260.8-133.17-80.66-79.36-125.94-175.24-129.17-289.34-2-72.16,15-140,49.62-203.22C1063.85,1177.8,1075.9,1160.18,1087.36,1141.7Zm439.37-61.23c-44.8-4.24-89.13-1.16-132.66,10.61-78.88,21.34-145.31,62.42-192.3,129.88-68.37,98.17-75.3,202.16-19.29,308.15,35.73,67.61,92.26,113.89,162.15,143.73,67.15,28.68,137.14,36.4,209,24.1,82.8-14.16,153.29-51.55,208.61-115.39,45.14-52.08,70.14-112.79,72.44-181.93,2.15-64.71-16.42-123.65-53.81-176.38-43.61-61.5-102.57-102.27-173.65-126.14-5.62-1.89-11.37-3.43-17.06-5.13a162.37,162.37,0,0,1,89.59,204c-27.2,75.45-104.89,119-184.26,102.78-74.29-15.22-132.64-82.74-127.24-167.68C1372.63,1162.14,1421.87,1085.11,1526.73,1080.47Z" transform="translate(-191.03 -119)"/><path class="cls-lumen-1" d="M856.74,384.31l122.53,340" transform="translate(-191.03 -119)"/><path class="cls-lumen-1" d="M1500.5,633.48v-484" transform="translate(-191.03 -119)"/><path class="cls-lumen-1" d="M2760.76,524.06l-309.27,405" transform="translate(-191.03 -119)"/><path class="cls-lumen-1" d="M322,1470c203-449.85,747-689.91,1226-679.65,428.41,13,937.51,225.51,1130,681.68" transform="translate(-191.03 -119)"/><path class="cls-lumen-1" d="M563.38,931.31l-317.19-406" transform="translate(-191.03 -119)"/><path class="cls-lumen-1" d="M2164.56,386.91l-125.11,338.8" transform="translate(-191.03 -119)"/><path class="cls-lumen-2" d="M828.62,449.14" transform="translate(-191.03 -119)"/><path class="cls-lumen-2" d="M828.62,78.66" transform="translate(-191.03 -119)"/><line class="cls-lumen-3" x1="1309.56" x2="1954.97"/></svg>